<mxfile host="Electron" modified="2024-04-13T09:14:33.581Z" agent="Mozilla/5.0 (Windows NT 10.0; Win64; x64) AppleWebKit/537.36 (KHTML, like Gecko) draw.io/24.1.0 Chrome/120.0.6099.109 Electron/28.1.0 Safari/537.36" etag="d0OFGsTIlvpsgfcd1vdd" version="24.1.0" type="device">
  <diagram id="C5RBs43oDa-KdzZeNtuy" name="Page-1">
    <mxGraphModel dx="1098" dy="820" grid="1" gridSize="10" guides="1" tooltips="1" connect="1" arrows="1" fold="1" page="1" pageScale="1" pageWidth="827" pageHeight="1169" math="0" shadow="0">
      <root>
        <mxCell id="WIyWlLk6GJQsqaUBKTNV-0" />
        <mxCell id="WIyWlLk6GJQsqaUBKTNV-1" parent="WIyWlLk6GJQsqaUBKTNV-0" />
        <mxCell id="10rqHE6PXA7wKN0kabXM-0" value="&lt;h1 style=&quot;margin-top: 0px;&quot;&gt;中高管理层太闲&lt;/h1&gt;&lt;p&gt;中高管理层太闲会导致严重内耗，内斗，对底层施压过大。&lt;/p&gt;&lt;p&gt;这就是为什么很多小公司，体量很小，就早早得了“大公司病”的原因。&lt;/p&gt;&lt;p&gt;“大公司病”的根源不在于 大，而在于一系列的 运行机制完善后，中高管理层把工作负担都转接给了 低管理层 。导致 中高管理层 太闲。公司运行良好的情况下， 中高管理层 开始作妖。 各种行业黑话，标签，高帽，不良风气盛行。&lt;/p&gt;&lt;p&gt;而小公司得了“大公司病” 也在于经过几年运作后，工作量下放，中高管理层 闲下来后同样开始作妖。&lt;/p&gt;&lt;p&gt;&lt;br&gt;&lt;/p&gt;" style="text;html=1;whiteSpace=wrap;overflow=hidden;rounded=0;" parent="WIyWlLk6GJQsqaUBKTNV-1" vertex="1">
          <mxGeometry x="40" y="40" width="380" height="300" as="geometry" />
        </mxCell>
        <mxCell id="qbTMolw_66hfWyhgeHeY-0" value="&lt;h1 style=&quot;margin-top: 0px;&quot;&gt;技术员工加班严重&lt;/h1&gt;&lt;p&gt;有效的管理更倾向于员工加班的根本原因在于：对接成本太重。员工与员工在对接时成本很重。基本上&amp;nbsp; 1 + 1 &amp;lt; 1 是时常的情况。所以很多管理者视图通过让员工加班，一个人把事尽量都做了，来减少对接成本。这也就是为什么 996 那么严重。但是大公司还是一直要这么做。本质上是为了减少对接，让一个人尽量多地覆盖掉工作项。剔除对接提高效率。&lt;/p&gt;&lt;p&gt;要解决加班问题，就要解决对接问题。如果员工不能高效对接。替代地方案就是不对接，让这个人全做，然后加班。&lt;/p&gt;&lt;p&gt;每个人的技术设配范围有限，一个项目很难找到一个全都会的人去开发。所以项目需要多人参与是一个基本上必定存在的问题。&lt;/p&gt;&lt;p&gt;《人月神话》提到，按人月来计算工程量是不切实际的，主要原因就在于参与人数增加会使得对接成本增加。&lt;/p&gt;" style="text;html=1;whiteSpace=wrap;overflow=hidden;rounded=0;" vertex="1" parent="WIyWlLk6GJQsqaUBKTNV-1">
          <mxGeometry x="40" y="320" width="380" height="350" as="geometry" />
        </mxCell>
      </root>
    </mxGraphModel>
  </diagram>
</mxfile>
